<?xml version="1.0" standalone="no"?>
<!DOCTYPE svg PUBLIC "-//W3C//DTD SVG 20010904//EN"
 "http://www.w3.org/TR/2001/REC-SVG-20010904/DTD/svg10.dtd">
<svg version="1.0" xmlns="http://www.w3.org/2000/svg"
 width="600.000000pt" height="600.000000pt" viewBox="0 0 600.000000 600.000000"
 preserveAspectRatio="xMidYMid meet">
<metadata>
Created by potrace 1.15, written by Peter Selinger 2001-2017
</metadata>
<g transform="translate(0.000000,600.000000) scale(0.100000,-0.100000)"
fill="#000000" stroke="none">
<path d="M2900 5203 c-19 -2 -39 -9 -44 -14 -6 -5 -59 -9 -118 -9 -65 0 -108
-4 -108 -10 0 -5 -24 -10 -54 -10 -30 0 -58 -4 -61 -10 -3 -5 -28 -10 -56 -10
-27 0 -49 -4 -49 -10 0 -5 -16 -10 -35 -10 -19 0 -35 -4 -35 -10 0 -5 -13 -10
-30 -10 -20 0 -30 -5 -30 -15 0 -10 -11 -15 -35 -15 -19 0 -35 -4 -35 -10 0
-5 -11 -10 -24 -10 -14 0 -28 -4 -31 -10 -3 -5 -17 -10 -31 -10 -13 0 -24 -4
-24 -10 0 -5 -7 -10 -15 -10 -8 0 -23 -4 -33 -9 -9 -6 -36 -18 -59 -27 -24
-10 -43 -21 -43 -26 0 -4 -9 -8 -20 -8 -11 0 -20 -4 -20 -10 0 -5 -7 -10 -15
-10 -8 0 -15 -4 -15 -10 0 -5 -9 -10 -20 -10 -11 0 -20 -4 -20 -9 0 -5 -13
-14 -29 -21 -16 -6 -39 -22 -52 -36 -12 -13 -27 -24 -34 -24 -6 0 -17 -9 -25
-20 -8 -11 -22 -20 -32 -20 -10 0 -18 -4 -18 -10 0 -5 -5 -10 -11 -10 -13 0
-39 -25 -39 -38 0 -6 -14 -16 -30 -24 -17 -7 -30 -16 -30 -20 0 -5 -5 -8 -10
-8 -11 0 -80 -65 -80 -75 0 -8 -27 -35 -35 -35 -7 0 -75 -67 -75 -75 0 -3 -19
-25 -42 -49 -54 -55 -68 -73 -68 -86 0 -5 -4 -10 -10 -10 -5 0 -10 -6 -10 -13
0 -7 -16 -30 -35 -52 -19 -22 -35 -46 -35 -52 0 -7 -4 -13 -10 -13 -5 0 -10
-6 -10 -13 0 -7 -9 -23 -20 -35 -11 -12 -20 -30 -20 -42 0 -11 -4 -20 -10 -20
-5 0 -10 -9 -10 -20 0 -11 -6 -20 -12 -20 -7 0 -23 -24 -36 -53 -13 -28 -28
-60 -33 -69 -5 -10 -9 -25 -9 -33 0 -8 -4 -15 -10 -15 -5 0 -10 -11 -10 -25 0
-14 -4 -25 -10 -25 -5 0 -10 -13 -10 -29 0 -16 -6 -31 -15 -35 -9 -3 -15 -18
-15 -36 0 -16 -4 -30 -10 -30 -5 0 -10 -22 -10 -49 0 -52 8 -61 55 -61 13 0
27 -4 30 -10 3 -5 19 -10 35 -10 16 0 32 -4 35 -10 3 -5 19 -10 36 -10 16 0
29 -4 29 -10 0 -5 11 -10 25 -10 14 0 25 -4 25 -10 0 -5 14 -10 30 -10 17 0
30 -4 30 -10 0 -5 9 -10 19 -10 10 0 21 -7 25 -15 3 -8 15 -15 26 -15 11 0 20
-4 20 -10 0 -5 9 -10 20 -10 11 0 20 -4 20 -8 0 -10 76 -52 94 -52 6 0 20 -11
30 -25 10 -14 25 -25 32 -25 8 0 14 -4 14 -10 0 -5 5 -10 10 -10 6 0 30 -19
55 -42 53 -52 72 -68 80 -68 10 0 95 -89 95 -100 0 -5 4 -10 9 -10 12 0 81
-69 81 -81 0 -11 27 -44 62 -77 16 -14 28 -31 28 -39 0 -7 5 -13 10 -13 6 0
10 -7 10 -15 0 -8 5 -15 10 -15 6 0 10 -9 10 -20 0 -11 5 -20 10 -20 6 0 10
-6 10 -14 0 -8 11 -24 25 -37 13 -13 25 -32 25 -41 0 -10 5 -18 10 -18 6 0 10
-9 10 -20 0 -11 5 -20 10 -20 6 0 10 -9 10 -20 0 -11 5 -20 10 -20 6 0 10 -11
10 -25 0 -14 5 -25 10 -25 6 0 10 -9 10 -20 0 -11 5 -20 10 -20 6 0 10 -8 10
-18 0 -10 7 -27 15 -38 8 -10 15 -27 15 -36 0 -10 5 -18 10 -18 6 0 10 -13 10
-29 0 -17 5 -33 10 -36 6 -3 10 -19 10 -36 0 -16 5 -29 10 -29 6 0 10 -18 10
-39 0 -22 5 -43 10 -46 6 -3 10 -24 10 -46 0 -21 4 -39 9 -39 4 0 11 -35 15
-77 3 -42 10 -79 15 -82 5 -4 11 -20 13 -36 l3 -30 125 -5 c70 -3 134 -10 146
-17 36 -21 64 -78 94 -195 7 -26 18 -52 24 -58 7 -5 89 -11 182 -12 l169 -3 3
-69 c2 -38 -1 -73 -6 -78 -5 -5 -25 5 -47 22 -41 32 -68 36 -73 9 -3 -17 132
-139 153 -139 18 0 155 120 155 136 0 29 -31 27 -69 -4 -21 -17 -41 -28 -45
-25 -3 4 -6 39 -6 80 l0 73 198 -2 197 -3 -2 -22 c-2 -13 -21 -61 -43 -108
-22 -47 -58 -123 -80 -170 -22 -46 -40 -88 -40 -93 0 -5 -10 -18 -23 -30 -23
-21 -31 -22 -255 -22 -179 0 -232 -3 -232 -12 0 -7 5 -30 10 -50 19 -66 28
-68 268 -68 117 0 221 -4 231 -10 25 -13 45 -64 37 -95 -14 -54 -103 -76 -155
-37 -18 13 -28 31 -31 58 l-5 39 -70 0 -70 0 -6 -39 c-8 -51 -39 -76 -94 -76
-57 0 -95 30 -95 75 0 19 5 37 11 41 7 4 2 16 -13 33 -29 32 -42 58 -63 136
-9 33 -21 71 -25 85 -5 14 -16 52 -25 85 -9 33 -21 72 -27 87 -5 14 -13 41
-18 60 -10 40 -84 280 -100 325 -15 42 -62 63 -140 63 -52 0 -67 -4 -92 -25
-16 -14 -36 -25 -44 -25 -11 0 -14 -16 -14 -68 0 -37 -4 -72 -9 -77 -8 -9 -20
-71 -38 -200 -3 -22 -9 -44 -14 -50 -5 -5 -9 -24 -9 -41 0 -18 -4 -36 -10 -39
-5 -3 -10 -22 -10 -41 0 -19 -4 -34 -10 -34 -5 0 -10 -11 -10 -25 0 -14 -4
-25 -10 -25 -5 0 -10 -11 -10 -25 0 -14 -4 -25 -8 -25 -10 0 -42 -71 -42 -93
0 -10 -4 -17 -10 -17 -15 0 -12 -60 4 -76 8 -8 24 -14 35 -14 12 0 21 -4 21
-10 0 -5 14 -10 30 -10 17 0 30 -4 30 -10 0 -5 16 -10 35 -10 19 0 35 -4 35
-10 0 -5 12 -10 28 -10 15 0 36 -7 46 -15 11 -8 32 -15 47 -15 15 0 31 -5 34
-10 3 -6 26 -10 50 -10 24 0 47 -4 50 -10 3 -5 35 -10 71 -10 36 0 64 -4 64
-10 0 -14 577 -14 585 0 3 5 33 10 65 10 32 0 62 5 65 10 3 6 28 10 56 10 27
0 49 5 49 10 0 6 15 10 34 10 18 0 39 7 46 15 7 8 25 15 41 15 16 0 29 5 29
10 0 6 11 10 24 10 14 0 28 4 31 10 3 5 19 10 36 10 16 0 29 5 29 10 0 6 14
10 30 10 17 0 30 5 30 10 0 6 9 10 19 10 11 0 23 5 26 10 3 6 14 10 25 10 10
0 20 7 24 15 3 8 17 15 31 15 14 0 25 5 25 10 0 6 9 10 20 10 11 0 20 5 20 10
0 6 7 10 15 10 8 0 15 5 15 10 0 6 9 10 20 10 11 0 20 5 20 10 0 6 6 10 13 10
7 0 24 11 39 25 15 14 32 25 39 25 6 0 19 8 28 18 9 9 30 24 46 32 36 18 55
35 55 49 0 6 7 11 15 11 16 0 36 15 96 72 21 20 39 41 39 47 0 6 4 11 9 11 5
0 35 25 65 56 31 30 56 60 56 65 0 5 5 9 10 9 14 0 80 66 80 80 0 5 5 10 10
10 6 0 10 7 10 16 0 17 23 44 38 44 5 0 19 20 32 45 13 25 27 45 32 45 4 0 8
9 8 20 0 11 5 20 10 20 6 0 10 6 10 13 0 7 11 24 25 39 14 15 25 34 25 43 0 8
5 15 10 15 6 0 10 9 10 20 0 11 5 20 10 20 6 0 10 11 10 25 0 14 5 25 10 25 6
0 10 9 10 20 0 11 5 20 10 20 6 0 10 9 10 19 0 10 7 21 15 25 8 3 15 15 15 26
0 11 5 20 10 20 6 0 10 11 10 24 0 14 4 28 10 31 6 3 10 17 10 31 0 13 5 24
10 24 6 0 10 14 10 30 0 17 5 30 10 30 6 0 10 16 10 35 0 19 5 35 10 35 6 0
10 17 10 39 0 22 6 44 15 51 9 8 15 29 15 56 0 23 5 46 10 49 6 3 10 35 10 71
0 36 4 64 10 64 6 0 10 103 10 290 0 187 -4 290 -10 290 -6 0 -10 30 -10 69 0
39 -4 73 -10 76 -5 3 -10 24 -10 46 0 26 -5 42 -15 45 -10 4 -15 20 -15 50 0
24 -4 44 -10 44 -5 0 -10 14 -10 30 0 17 -4 30 -10 30 -5 0 -10 16 -10 35 0
19 -4 35 -10 35 -5 0 -10 14 -10 30 0 17 -4 30 -10 30 -5 0 -10 9 -10 19 0 11
-4 23 -10 26 -5 3 -10 15 -10 26 0 11 -7 22 -15 25 -8 4 -15 17 -15 30 0 13
-4 24 -10 24 -5 0 -10 6 -10 14 0 19 -42 96 -52 96 -4 0 -8 7 -8 15 0 14 -25
61 -40 75 -10 9 -41 65 -47 83 -3 9 -9 17 -14 17 -5 0 -9 5 -9 11 0 14 -25 39
-39 39 -6 0 -11 9 -11 20 0 11 -4 20 -10 20 -5 0 -10 5 -10 10 0 6 -19 30 -42
55 -51 52 -68 72 -68 80 0 11 -157 161 -183 174 -15 8 -27 18 -27 23 0 4 -7 8
-15 8 -8 0 -15 5 -15 11 0 14 -18 31 -52 48 -16 8 -28 18 -28 23 0 4 -7 8 -15
8 -8 0 -15 5 -15 10 0 6 -7 10 -16 10 -9 0 -25 11 -36 25 -11 14 -26 25 -34
25 -8 0 -14 5 -14 10 0 6 -8 10 -18 10 -10 0 -28 9 -40 20 -12 11 -28 20 -37
20 -8 0 -15 5 -15 10 0 6 -11 10 -25 10 -16 0 -25 6 -25 15 0 8 -9 15 -20 15
-11 0 -20 5 -20 10 0 6 -9 10 -20 10 -11 0 -20 5 -20 10 0 6 -11 10 -25 10
-14 0 -25 5 -25 10 0 6 -13 10 -30 10 -16 0 -30 5 -30 10 0 6 -11 10 -25 10
-14 0 -25 5 -25 10 0 6 -12 10 -26 10 -14 0 -32 7 -40 15 -9 8 -31 15 -50 15
-19 0 -34 5 -34 10 0 6 -13 10 -30 10 -16 0 -30 5 -30 10 0 6 -20 10 -45 10
-25 0 -45 5 -45 10 0 6 -28 10 -65 10 -37 0 -65 4 -65 10 0 6 -41 10 -103 10
-57 0 -107 4 -113 10 -11 11 -153 20 -204 13z m300 -543 c14 -11 31 -20 38
-20 6 0 12 -4 12 -10 0 -5 5 -10 11 -10 11 0 39 -25 39 -35 0 -7 67 -75 75
-75 8 0 55 -47 55 -55 0 -3 15 -21 33 -40 60 -64 77 -84 77 -91 0 -3 13 -18
28 -32 15 -15 41 -45 57 -67 17 -22 38 -49 48 -59 9 -11 17 -25 17 -31 0 -6 9
-17 20 -25 11 -8 20 -19 20 -25 0 -5 16 -28 35 -50 19 -22 35 -45 35 -52 0 -7
5 -13 10 -13 6 0 10 -7 10 -15 0 -8 5 -15 10 -15 6 0 10 -8 10 -18 0 -9 11
-26 25 -36 14 -10 25 -27 25 -37 0 -11 5 -19 10 -19 6 0 10 -8 10 -18 0 -10 9
-24 20 -32 11 -8 20 -22 20 -32 0 -10 5 -18 10 -18 6 0 10 -7 10 -16 0 -15 48
-86 63 -92 4 -2 7 -15 7 -28 0 -13 5 -24 10 -24 6 0 10 -9 10 -20 0 -11 5 -20
10 -20 6 0 10 -9 10 -20 0 -11 5 -20 10 -20 6 0 10 -9 10 -20 0 -11 7 -23 15
-26 8 -4 15 -15 15 -25 0 -10 5 -19 10 -19 6 0 10 -9 10 -20 0 -11 5 -20 10
-20 6 0 10 -11 10 -25 0 -14 5 -25 10 -25 6 0 10 -9 10 -19 0 -11 5 -23 10
-26 6 -3 10 -14 10 -24 0 -24 29 -81 41 -81 5 0 9 -13 9 -30 0 -16 5 -30 10
-30 6 0 10 -11 10 -24 0 -14 5 -28 10 -31 6 -3 10 -17 10 -31 0 -13 5 -24 10
-24 6 0 10 -16 10 -35 0 -19 5 -35 10 -35 6 0 10 -13 10 -29 0 -17 4 -32 9
-35 4 -3 11 -24 15 -46 3 -22 11 -40 16 -40 6 0 10 -20 10 -45 0 -25 5 -45 10
-45 6 0 10 -20 10 -45 0 -25 5 -45 10 -45 6 0 10 -22 10 -49 0 -28 5 -53 10
-56 6 -3 10 -37 10 -75 0 -38 5 -72 10 -75 6 -4 10 -63 10 -146 0 -86 -4 -139
-10 -139 -5 0 -10 -8 -10 -17 -1 -65 -144 -119 -212 -80 -30 16 -76 65 -92 96
-8 14 -17 63 -21 109 -4 45 -11 82 -16 82 -5 0 -9 41 -9 90 0 53 -4 90 -10 90
-5 0 -10 25 -10 55 0 30 -4 55 -10 55 -5 0 -10 23 -10 50 0 28 -4 50 -9 50 -5
0 -11 17 -15 38 -14 94 -19 114 -32 119 -8 3 -14 18 -14 34 0 16 -4 29 -10 29
-5 0 -10 16 -10 35 0 19 -4 35 -10 35 -5 0 -10 14 -10 30 0 17 -4 30 -10 30
-5 0 -10 11 -10 25 0 14 -4 25 -10 25 -5 0 -10 11 -10 24 0 14 -4 28 -10 31
-5 3 -10 15 -10 26 0 11 -7 22 -15 25 -8 4 -15 15 -15 25 0 10 -4 19 -10 19
-5 0 -10 7 -10 15 0 8 -4 23 -9 33 -5 9 -26 52 -47 95 -21 42 -42 77 -46 77
-4 0 -8 9 -8 20 0 11 -4 20 -10 20 -5 0 -10 9 -10 19 0 11 -4 23 -10 26 -5 3
-10 15 -10 26 0 10 -4 19 -9 19 -5 0 -14 14 -21 30 -7 17 -19 30 -26 30 -8 0
-14 9 -14 20 0 12 -9 30 -20 42 -11 12 -20 28 -20 35 0 7 -3 13 -8 13 -4 0
-14 15 -22 33 -15 34 -21 44 -57 82 -13 13 -23 29 -23 35 0 5 -4 10 -10 10 -5
0 -10 7 -10 15 0 9 -10 27 -22 40 -34 35 -48 53 -48 60 0 3 -13 19 -30 37 -16
17 -30 35 -30 40 0 5 -34 43 -75 83 -41 41 -75 77 -75 80 0 4 -21 26 -47 48
-83 75 -133 126 -133 137 0 5 -4 10 -10 10 -5 0 -10 7 -10 15 0 8 -4 15 -10
15 -6 0 -10 27 -10 63 0 46 5 68 20 87 11 14 20 30 20 36 0 5 16 16 35 24 19
8 35 17 35 22 0 4 26 8 58 8 41 0 64 -6 82 -20z m-558 -512 c28 -16 68 -55 68
-65 0 -5 12 -17 27 -28 40 -30 103 -92 103 -102 0 -4 12 -17 27 -28 44 -34 83
-72 83 -84 0 -6 3 -11 8 -11 4 0 13 -13 20 -30 8 -16 18 -30 24 -30 13 0 30
-19 48 -55 8 -16 23 -37 32 -46 10 -9 18 -21 18 -26 0 -6 10 -21 23 -35 12
-13 28 -36 36 -51 8 -15 18 -27 23 -27 4 0 8 -9 8 -20 0 -11 4 -20 8 -20 5 0
19 -20 31 -43 12 -24 33 -56 47 -70 13 -14 24 -35 24 -47 0 -11 5 -20 10 -20
6 0 10 -9 10 -20 0 -11 5 -20 10 -20 6 0 10 -9 10 -20 0 -11 4 -20 9 -20 5 0
12 -11 15 -25 4 -14 11 -25 16 -25 6 0 10 -9 10 -20 0 -11 5 -20 10 -20 6 0
10 -9 10 -19 0 -11 5 -23 10 -26 6 -3 10 -15 10 -26 0 -10 4 -19 8 -19 5 0 15
-23 22 -51 8 -27 18 -52 22 -55 4 -3 8 -13 8 -24 0 -10 7 -20 15 -24 9 -3 15
-18 15 -36 0 -16 5 -30 10 -30 6 0 10 -13 10 -30 0 -16 5 -30 10 -30 6 0 10
-16 10 -35 0 -19 5 -35 10 -35 6 0 10 -15 10 -34 0 -19 5 -38 10 -41 6 -3 10
-22 10 -41 0 -19 4 -34 9 -34 5 0 11 -23 13 -52 3 -29 11 -54 17 -56 6 -2 11
-27 11 -58 0 -30 5 -54 10 -54 6 0 10 -33 10 -79 0 -44 5 -83 10 -86 6 -4 10
-57 10 -125 0 -68 -4 -121 -10 -125 -6 -3 -10 -13 -10 -22 0 -20 -49 -63 -72
-63 -10 0 -18 -4 -18 -10 0 -5 -16 -10 -35 -10 -19 0 -35 5 -35 10 0 6 -7 10
-15 10 -18 0 -65 43 -65 60 0 5 -4 10 -10 10 -6 0 -10 33 -10 79 0 44 -4 82
-9 85 -5 3 -12 53 -16 111 -4 58 -11 105 -16 105 -5 0 -9 27 -9 60 0 33 -4 60
-10 60 -5 0 -10 20 -10 44 0 25 -4 48 -10 51 -5 3 -10 22 -10 41 0 19 -4 34
-10 34 -5 0 -10 12 -10 26 0 34 -30 124 -41 124 -5 0 -9 14 -9 30 0 17 -4 30
-10 30 -5 0 -10 11 -10 25 0 14 -4 25 -10 25 -5 0 -10 14 -10 30 0 17 -4 30
-10 30 -5 0 -10 11 -10 25 0 14 -4 25 -10 25 -5 0 -10 9 -10 20 0 11 -4 20
-10 20 -5 0 -10 9 -10 20 0 11 -7 23 -15 26 -8 4 -15 15 -15 25 0 10 -4 19
-10 19 -5 0 -10 9 -10 19 0 11 -4 23 -10 26 -5 3 -10 15 -10 26 0 10 -4 19
-10 19 -5 0 -10 9 -10 20 0 11 -4 20 -10 20 -5 0 -10 9 -10 20 0 11 -7 23 -15
26 -8 4 -15 12 -15 18 0 7 -9 22 -20 34 -11 12 -20 28 -20 37 0 8 -4 15 -10
15 -5 0 -10 7 -10 15 0 8 -4 15 -10 15 -5 0 -10 7 -10 16 0 18 -23 44 -39 44
-6 0 -11 9 -11 20 0 11 -4 20 -10 20 -5 0 -10 7 -10 15 0 8 -4 15 -8 15 -5 0
-15 12 -23 28 -8 15 -29 42 -46 59 -18 18 -33 37 -33 43 0 5 -67 77 -150 160
-82 83 -150 158 -150 166 0 8 -4 14 -10 14 -5 0 -10 20 -10 44 0 25 5 48 10
51 6 3 10 13 10 21 0 20 24 44 44 44 9 0 16 5 16 10 0 14 106 12 132 -2z
m-536 -463 c23 -25 45 -45 49 -45 8 0 35 -26 35 -34 0 -9 31 -46 73 -88 20
-21 37 -41 37 -44 0 -3 12 -18 28 -32 15 -15 33 -39 41 -54 8 -16 20 -28 28
-28 7 0 13 -6 13 -13 0 -7 9 -19 20 -27 11 -8 20 -20 20 -27 0 -7 14 -27 30
-45 17 -17 30 -35 30 -39 0 -4 11 -19 25 -33 14 -14 25 -32 25 -41 0 -8 5 -15
10 -15 6 0 10 -7 10 -15 0 -8 5 -15 10 -15 6 0 10 -7 10 -15 0 -16 8 -28 48
-70 12 -13 22 -33 22 -45 0 -11 5 -20 10 -20 6 0 10 -9 10 -20 0 -11 5 -20 10
-20 6 0 10 -9 10 -20 0 -11 3 -20 8 -20 4 0 15 -20 25 -45 11 -25 23 -45 28
-45 5 0 9 -9 9 -19 0 -11 5 -23 10 -26 6 -3 10 -15 10 -26 0 -10 5 -19 10 -19
6 0 10 -13 10 -30 0 -16 5 -30 10 -30 6 0 10 -11 10 -25 0 -14 5 -25 10 -25 6
0 10 -13 10 -30 0 -16 5 -30 10 -30 6 0 10 -11 10 -24 0 -14 7 -31 15 -40 8
-8 15 -28 15 -45 0 -16 5 -33 10 -36 6 -3 10 -21 10 -40 0 -19 5 -37 10 -40 6
-3 10 -28 10 -56 0 -27 5 -49 10 -49 6 0 10 -30 10 -69 0 -39 5 -73 10 -76 6
-4 10 -57 10 -125 0 -68 -4 -121 -10 -125 -5 -3 -10 -13 -10 -21 0 -20 -24
-44 -44 -44 -8 0 -18 -4 -21 -10 -8 -13 -45 -13 -45 0 0 6 -7 10 -16 10 -41 0
-62 56 -66 174 -3 66 -8 101 -16 104 -8 2 -12 30 -12 83 0 46 -4 79 -10 79 -5
0 -10 22 -10 49 0 28 -4 53 -10 56 -5 3 -10 24 -10 46 0 21 -4 39 -10 39 -5 0
-10 16 -10 35 0 19 -4 35 -10 35 -5 0 -10 14 -10 30 0 20 -5 30 -15 30 -10 0
-15 10 -15 29 0 17 -4 33 -10 36 -5 3 -10 15 -10 26 0 10 -4 19 -10 19 -5 0
-10 11 -10 25 0 14 -4 25 -10 25 -5 0 -10 9 -10 20 0 11 -4 20 -10 20 -5 0
-10 6 -10 13 0 21 -30 77 -41 77 -5 0 -9 9 -9 20 0 11 -4 20 -10 20 -5 0 -10
9 -10 20 0 11 -4 20 -10 20 -5 0 -10 8 -10 18 0 10 -9 28 -20 40 -11 12 -20
26 -20 32 0 6 -11 23 -25 38 -14 15 -25 30 -25 35 0 4 -9 17 -20 29 -11 12
-20 28 -20 35 0 7 -4 13 -8 13 -4 0 -16 15 -27 33 -10 17 -30 43 -44 57 -14
14 -32 37 -39 51 -16 31 -56 79 -66 79 -11 0 -36 27 -36 39 0 19 -84 111 -101
111 -5 0 -9 5 -9 11 0 6 -18 28 -40 49 -22 21 -40 46 -40 54 0 9 -7 16 -15 16
-27 0 -16 45 20 83 19 20 35 42 35 47 0 6 21 10 47 10 42 0 50 -4 89 -45z"/>
<path d="M774 2886 c-3 -8 -1 -23 5 -35 6 -11 11 -58 11 -105 0 -62 4 -89 15
-100 9 -9 15 -34 15 -65 0 -28 5 -51 10 -51 6 0 10 -20 10 -44 0 -25 5 -48 10
-51 6 -3 10 -22 10 -41 0 -19 5 -34 10 -34 6 0 10 -16 10 -35 0 -19 5 -35 10
-35 6 0 10 -8 10 -18 0 -10 7 -27 15 -38 8 -10 15 -27 15 -36 0 -10 5 -18 10
-18 6 0 10 -13 10 -30 0 -16 5 -30 10 -30 6 0 10 -11 10 -25 0 -14 5 -25 10
-25 6 0 10 -9 10 -20 0 -11 5 -20 10 -20 6 0 10 -6 10 -14 0 -18 32 -76 43
-76 4 0 7 -9 7 -20 0 -11 5 -20 10 -20 6 0 10 -7 10 -15 0 -8 5 -15 10 -15 6
0 10 -9 10 -20 0 -11 5 -20 10 -20 6 0 10 -7 10 -15 0 -9 11 -27 25 -41 14
-14 25 -29 25 -35 0 -5 14 -23 30 -41 17 -17 30 -37 30 -44 0 -8 4 -14 8 -14
5 0 15 -11 22 -25 7 -14 17 -25 22 -25 13 0 38 -26 38 -39 0 -18 115 -130 135
-132 41 -4 55 1 55 21 0 11 5 20 10 20 6 0 10 11 10 25 0 16 6 25 15 25 8 0
15 9 15 20 0 11 5 20 10 20 6 0 10 11 10 24 0 14 5 28 10 31 6 3 10 17 10 30
0 13 5 27 10 30 6 3 10 24 10 45 0 21 5 42 10 45 6 4 10 75 10 181 0 109 -4
174 -10 174 -5 0 -10 20 -10 45 0 25 -4 45 -10 45 -5 0 -10 13 -10 29 0 17 -4
33 -10 36 -5 3 -10 14 -10 24 0 24 -29 81 -41 81 -5 0 -9 9 -9 20 0 12 -9 30
-20 42 -11 12 -20 28 -20 35 0 7 -4 13 -10 13 -5 0 -10 8 -10 18 0 20 -42 72
-59 72 -6 0 -11 6 -11 14 0 15 -43 61 -85 91 -16 11 -45 36 -66 55 -52 49 -67
60 -78 60 -6 0 -26 9 -46 20 -20 11 -42 20 -50 20 -8 0 -15 5 -15 10 0 6 -9
10 -21 10 -11 0 -27 7 -35 15 -9 8 -31 15 -50 15 -19 0 -34 5 -34 10 0 17
-140 13 -146 -4z"/>
</g>
</svg>
